# Blender 5.0.0
# www.blender.org
mtllib bit.mtl
o Material2
v -0.915591 -0.931214 -0.868403
v -0.330701 -0.771606 -1.118888
v -0.442197 -0.931214 -0.868403
v 0.015623 -0.568786 -1.437189
v 0.015623 -0.780898 -1.104306
v 0.015623 -0.568786 -1.437189
v 0.445900 -0.792442 -1.086189
v 0.015623 -0.780898 -1.104306
v 0.946837 -0.931214 -0.868403
v 0.531676 -0.931214 -0.868403
v -0.330701 -0.771606 -1.118888
v 0.445900 -0.792442 -1.086189
v 0.084905 -1.417116 -0.883596
v 0.015623 -0.780898 -1.104306
v 0.084905 -1.417116 -0.883596
v -0.442197 -0.931214 -0.868403
v -0.330701 -0.771606 -1.118888
v -0.637701 -1.183760 -0.454937
v -0.637701 -1.183760 -0.454937
v -0.553163 -1.500000 0.062811
v -0.283156 -1.316059 -0.238337
v 0.015623 -1.500000 0.062811
v 0.015623 -1.427549 -0.055805
v -0.915591 -0.480345 -0.868403
v -0.421417 -0.630709 -1.170245
v -0.915591 -0.931214 -0.868403
v 0.015623 -0.568786 -1.437189
v -0.237447 -0.285793 -1.282614
v 0.015623 0.000000 -1.437189
v -0.085014 0.000000 -1.375721
v 0.696366 -1.172250 -0.473780
v 0.015623 -1.500000 0.062811
v 0.066289 -1.446456 -0.024852
v 0.584408 -1.500000 0.062811
v 0.015623 -1.427549 -0.055805
v 0.084905 -1.417116 -0.883596
v 0.531676 -0.931214 -0.868403
v 0.696366 -1.172250 -0.473780
v 0.445900 -0.792442 -1.086189
v 0.015623 -0.568786 -1.437189
v 0.521144 -0.662238 -1.128417
v 0.946837 -0.931214 -0.868403
v 0.127715 -0.000000 -1.368723
v 0.015623 0.000000 -1.437189
v 0.946837 -0.464445 -0.868403
v 0.084905 -1.417116 -0.883596
v -0.283156 -1.316059 -0.238337
v -0.637701 -1.183760 -0.454937
v 0.015623 -1.427549 -0.055805
v 0.066289 -1.446456 -0.024852
v -0.553163 -1.500000 0.062811
v -0.604777 -1.234898 0.496835
v -0.915591 -0.931214 0.994025
v 0.015623 -1.436810 0.166265
v 0.015623 -1.500000 0.062811
v -0.457268 -0.931214 0.994025
v -0.553163 -1.500000 0.062811
v -0.784976 -1.136199 -0.367572
v -0.915591 -0.931214 -0.868403
v -0.770285 -1.159255 0.062811
v -0.915591 -0.931214 -0.443513
v -1.103970 -0.428304 -0.748369
v -1.484377 0.000000 -0.505975
v -1.113692 0.000000 -0.742174
v -0.915591 -0.480345 -0.868403
v -0.842227 0.022883 -1.408484
v -0.421417 -0.630709 -1.170245
v -1.103970 -0.428304 -0.748369
v -0.842227 0.022883 -1.408484
v -0.237447 -0.285793 -1.282614
v -0.421417 -0.630709 -1.170245
v -0.085014 0.000000 -1.375721
v -0.060420 0.046109 -1.390742
v -0.915591 0.931214 -0.868403
v -0.475934 0.658342 -1.136946
v -0.915591 0.481166 -0.868403
v 0.015623 0.000000 -1.437189
v -0.060420 0.046109 -1.390742
v 0.015623 0.568786 -1.437189
v -0.085014 0.000000 -1.375721
v 0.696366 -1.172250 -0.473780
v 0.066289 -1.446456 -0.024852
v 0.084905 -1.417116 -0.883596
v 0.584408 -1.500000 0.062811
v 0.826441 -1.120160 -0.386601
v 0.816642 -1.135538 0.062811
v 0.946837 -0.931214 -0.868403
v 0.946837 -0.931214 -0.436215
v 0.015623 -1.500000 0.062811
v 0.062689 -1.452128 0.141186
v 0.015623 -1.436810 0.166265
v 0.584408 -1.500000 0.062811
v 0.673028 -1.207497 0.541695
v 0.946837 -0.931214 0.994025
v 0.555618 -1.014969 0.856902
v 0.504541 -0.931214 0.994025
v 0.015623 0.000000 -1.437189
v 0.097535 0.050801 -1.387157
v 0.127715 -0.000000 -1.368723
v 0.015623 0.568786 -1.437189
v 0.538582 0.679364 -1.117765
v 0.946837 0.931214 -0.868403
v 0.850669 0.557642 -0.927143
v 0.946837 0.520133 -0.868403
v 0.127715 -0.000000 -1.368723
v 0.947801 0.076061 -1.367862
v 0.521144 -0.662238 -1.128417
v 0.097535 0.050801 -1.387157
v 0.946837 -0.464445 -0.868403
v 0.947801 0.076061 -1.367862
v 1.201841 -0.353230 -0.705915
v 0.521144 -0.662238 -1.128417
v 1.201841 -0.353230 -0.705915
v 1.515623 0.000000 -0.505975
v 1.182463 0.000000 -0.718263
v 0.015623 -1.436810 0.166265
v 0.046104 -1.478267 0.906218
v -0.604777 -1.234898 0.496835
v 0.062689 -1.452128 0.141186
v 0.046104 -1.478267 0.906218
v -0.457268 -0.931214 0.994025
v -0.604777 -1.234898 0.496835
v -0.406586 -0.810875 1.182883
v -0.406586 -0.810875 1.182883
v 0.015623 -0.568786 1.562811
v 0.015623 -0.807133 1.188755
v -0.915591 -0.931214 0.994025
v -0.758775 -1.177317 0.399974
v -0.553163 -1.500000 0.062811
v -0.915591 -0.931214 0.512620
v -0.770285 -1.159255 0.062811
v -1.399506 -0.937744 -0.003025
v -0.770285 -1.159255 0.062811
v -0.758775 -1.177317 0.399974
v -0.784976 -1.136199 -0.367572
v -1.399506 -0.937744 -0.003025
v -0.915591 -0.931214 -0.443513
v -0.784976 -1.136199 -0.367572
v -1.161839 -0.528058 -0.602422
v -1.484377 0.000000 0.062811
v -1.425122 -0.097012 0.025144
v -1.410701 -0.120622 0.062811
v -1.484377 0.000000 -0.505975
v -1.287114 -0.322959 -0.303816
v -1.161839 -0.528058 -0.602422
v -1.484377 0.000000 -0.505975
v -1.122840 0.403035 -0.736345
v -1.113692 0.000000 -0.742174
v -0.842227 0.022883 -1.408484
v -1.113692 0.000000 -0.742174
v -1.122840 0.403035 -0.736345
v -1.103970 -0.428304 -0.748369
v -0.475934 0.658342 -1.136946
v -0.060420 0.046109 -1.390742
v -0.842227 0.022883 -1.408484
v -0.915591 0.481166 -0.868403
v -0.842227 0.022883 -1.408484
v -1.122840 0.403035 -0.736345
v -0.475934 0.658342 -1.136946
v -0.915591 0.931214 -0.868403
v -0.395333 0.798173 -1.077195
v 0.015623 0.568786 -1.437189
v -0.467619 0.931214 -0.868403
v 0.015623 0.801815 -1.071479
v 1.046257 -0.768444 -0.483428
v 1.250080 -0.434746 -0.580221
v 1.464305 -0.084018 0.062811
v 1.515623 0.000000 -0.505975
v 1.515623 0.000000 0.062811
v 1.496820 -0.851701 0.062703
v 0.946837 -0.931214 -0.436215
v 1.046257 -0.768444 -0.483428
v 0.826441 -1.120160 -0.386601
v 0.816642 -1.135538 0.062811
v 1.496820 -0.851701 0.062703
v 0.807911 -1.149242 0.463268
v 0.826441 -1.120160 -0.386601
v 0.946837 -0.931214 0.994025
v 0.807911 -1.149242 0.463268
v 0.946837 -0.931214 0.542919
v 0.584408 -1.500000 0.062811
v 0.816642 -1.135538 0.062811
v 0.015623 -0.568786 1.562811
v 0.435104 -0.803415 1.194589
v 0.015623 -0.807133 1.188755
v 0.046104 -1.478267 0.906218
v 0.504541 -0.931214 0.994025
v 0.435104 -0.803415 1.194589
v 0.555618 -1.014969 0.856902
v 0.673028 -1.207497 0.541695
v 0.673028 -1.207497 0.541695
v 0.046104 -1.478267 0.906218
v 0.062689 -1.452128 0.141186
v 1.158180 0.442654 -0.733737
v 1.515623 0.000000 -0.505975
v 1.182463 0.000000 -0.718263
v 0.946837 0.520133 -0.868403
v 0.947801 0.076061 -1.367862
v 0.850669 0.557642 -0.927143
v 1.158180 0.442654 -0.733737
v 0.538582 0.679364 -1.117765
v 0.538582 0.679364 -1.117765
v 0.947801 0.076061 -1.367862
v 0.097535 0.050801 -1.387157
v 0.452895 0.805690 -1.065397
v 0.015623 0.568786 -1.437189
v 0.015623 0.801815 -1.071479
v 0.946837 0.931214 -0.868403
v 0.505761 0.931214 -0.868403
v 0.947801 0.076061 -1.367862
v 1.182463 0.000000 -0.718263
v 1.201841 -0.353230 -0.705915
v 1.158180 0.442654 -0.733737
v 0.435104 -0.803415 1.194589
v -0.406586 -0.810875 1.182883
v 0.046104 -1.478267 0.906218
v 0.015623 -0.807133 1.188755
v 0.015623 -0.568786 1.562811
v -0.506461 -0.663631 1.243922
v -0.915591 -0.931214 0.994025
v -0.076915 -0.051460 1.506288
v 0.015623 0.000000 1.562811
v -0.107487 0.000000 1.487615
v -0.810409 -0.545083 1.058271
v -0.915591 -0.504059 0.994025
v -1.484377 -0.000000 0.631596
v -1.163159 -0.525898 0.709377
v -1.410701 -0.120622 0.062811
v -1.484377 0.000000 0.062811
v -1.399506 -0.937744 -0.003025
v -0.915591 -0.931214 0.512620
v -1.163159 -0.525898 0.709377
v -0.758775 -1.177317 0.399974
v -1.161839 -0.528058 -0.602422
v -1.399506 -0.937744 -0.003025
v -1.287114 -0.322959 -0.303816
v -1.425122 -0.097012 0.025144
v -1.410701 -0.120622 0.062811
v -1.399506 -0.937744 -0.003025
v -1.163159 -0.525898 0.709377
v -1.425122 -0.097012 0.025144
v -0.915591 0.931214 -0.868403
v -1.185968 0.488555 -0.585139
v -0.915591 0.931214 -0.411507
v -1.430753 0.087794 0.031336
v -1.484377 0.000000 0.062811
v -1.420267 0.104961 0.062811
v -1.484377 0.000000 -0.505975
v -0.553163 1.500000 0.062811
v -0.634882 1.205491 -0.419359
v -0.020020 1.451935 -0.015881
v 0.015623 1.500000 0.062811
v 0.015623 1.440335 -0.034873
v -0.516602 1.011535 -0.736902
v -0.003312 1.478267 -0.786584
v -0.467619 0.931214 -0.868403
v -0.516602 1.011535 -0.736902
v -0.395333 0.798173 -1.077195
v -0.003312 1.478267 -0.786584
v 0.015623 0.801815 -1.071479
v -0.395333 0.798173 -1.077195
v 0.452895 0.805690 -1.065397
v 1.222442 -0.479995 0.719908
v 1.515623 0.000000 0.631596
v 1.472997 -0.069787 0.088902
v 1.515623 0.000000 0.062811
v 1.464305 -0.084018 0.062811
v 1.496820 -0.851701 0.062703
v 1.464305 -0.084018 0.062811
v 1.472997 -0.069787 0.088902
v 1.250080 -0.434746 -0.580221
v 1.250080 -0.434746 -0.580221
v 1.515623 0.000000 -0.505975
v 1.456647 0.096554 0.062811
v 1.515623 0.000000 0.062811
v 1.200358 0.516151 -0.606603
v 0.946837 0.931214 -0.868403
v 0.946837 0.931214 -0.405114
v 0.946837 -0.931214 0.542919
v 1.496820 -0.851701 0.062703
v 1.222442 -0.479995 0.719908
v 0.807911 -1.149242 0.463268
v 0.946837 -0.486868 0.994025
v 0.517939 -0.659710 1.255996
v 0.946837 -0.931214 0.994025
v 0.015623 -0.568786 1.562811
v 0.101531 -0.046159 1.510338
v 0.015623 0.000000 1.562811
v 0.126151 0.000000 1.495300
v -0.003312 1.478267 -0.786584
v 0.505761 0.931214 -0.868403
v 0.452895 0.805690 -1.065397
v 0.652394 1.233094 -0.374166
v 0.015623 1.500000 0.062811
v 0.652394 1.233094 -0.374166
v 0.015623 1.440335 -0.034873
v 0.584408 1.500000 0.062811
v 0.015623 0.000000 1.562811
v -0.489477 0.642984 1.254296
v -0.107487 0.000000 1.487615
v 0.015623 0.568786 1.562811
v -0.915591 0.931214 0.994025
v -0.915591 0.444996 0.994025
v -0.905008 -0.076061 1.487496
v -0.107487 0.000000 1.487615
v -0.489477 0.642984 1.254296
v -0.076915 -0.051460 1.506288
v -0.076915 -0.051460 1.506288
v -0.905008 -0.076061 1.487496
v -0.506461 -0.663631 1.243922
v -0.506461 -0.663631 1.243922
v -0.905008 -0.076061 1.487496
v -0.810409 -0.545083 1.058271
v -0.915591 -0.504059 0.994025
v -1.109773 -0.432871 0.870293
v -1.109773 -0.432871 0.870293
v -1.484377 -0.000000 0.631596
v -1.133520 -0.000000 0.855162
v -0.915591 0.931214 0.543828
v -1.212970 0.444348 0.685050
v -0.915591 0.931214 0.994025
v -1.013840 0.770361 0.590486
v -1.484377 -0.000000 0.631596
v -1.420267 0.104961 0.062811
v -1.484377 0.000000 0.062811
v -1.454028 0.851701 0.056931
v -1.420267 0.104961 0.062811
v -1.212970 0.444348 0.685050
v -1.430753 0.087794 0.031336
v -1.185968 0.488555 -0.585139
v -1.430753 0.087794 0.031336
v -1.454028 0.851701 0.056931
v -1.454028 0.851701 0.056931
v -0.915591 0.931214 -0.411507
v -1.185968 0.488555 -0.585139
v -0.781050 1.142361 -0.334370
v -0.553163 1.500000 0.062811
v -0.781050 1.142361 -0.334370
v -0.789710 1.128770 0.062811
v 0.015623 1.440335 -0.034873
v -0.003312 1.478267 -0.786584
v -0.020020 1.451935 -0.015881
v 0.652394 1.233094 -0.374166
v -0.003312 1.478267 -0.786584
v -0.634882 1.205491 -0.419359
v -0.020020 1.451935 -0.015881
v -0.634882 1.205491 -0.419359
v -0.483132 0.931214 0.994025
v -0.649058 1.174059 0.596441
v -0.915591 0.931214 0.994025
v -0.553163 1.500000 0.062811
v -0.023634 1.446239 0.150828
v 0.015623 1.500000 0.062811
v 0.015623 1.431590 0.174811
v 1.496820 -0.851701 0.062703
v 1.472997 -0.069787 0.088902
v 1.222442 -0.479995 0.719908
v 1.515623 0.000000 0.631596
v 1.199007 0.518362 0.736242
v 0.946837 0.931214 0.994025
v 1.327246 0.308409 0.430569
v 1.515623 0.000000 0.062811
v 1.468521 0.077115 0.093824
v 1.456647 0.096554 0.062811
v 0.946837 0.931214 0.573511
v 1.166413 -0.404091 0.854112
v 1.515623 0.000000 0.631596
v 1.157240 0.000000 0.859957
v 0.786409 1.182985 -0.289874
v 0.584408 1.500000 0.062811
v 0.798449 1.164091 0.062811
v 1.442299 0.937744 0.122660
v 0.946837 0.931214 -0.405114
v 0.786409 1.182985 -0.289874
v 1.200358 0.516151 -0.606603
v 1.468521 0.077115 0.093824
v 1.200358 0.516151 -0.606603
v 1.442299 0.937744 0.122660
v 1.456647 0.096554 0.062811
v 0.885020 -0.022883 1.528118
v 0.946837 -0.486868 0.994025
v 1.166413 -0.404091 0.854112
v 0.517939 -0.659710 1.255996
v 0.885020 -0.022883 1.528118
v 0.101531 -0.046159 1.510338
v 0.517939 -0.659710 1.255996
v 0.885020 -0.022883 1.528118
v 0.126151 0.000000 1.495300
v 0.101531 -0.046159 1.510338
v 0.278939 0.286457 1.401977
v 0.946837 0.931214 0.994025
v 0.463304 0.632116 1.289367
v 0.946837 0.484989 0.994025
v 0.126151 0.000000 1.495300
v 0.015623 0.568786 1.562811
v 0.015623 0.000000 1.562811
v 0.278939 0.286457 1.401977
v 0.946837 0.931214 0.994025
v 0.675157 1.185483 0.577737
v 0.478319 0.931214 0.994025
v 0.323231 1.316805 0.362737
v 0.015623 1.500000 0.062811
v 0.015623 1.431590 0.174811
v 0.584408 1.500000 0.062811
v -1.484377 -0.000000 0.631596
v -1.152269 0.341773 0.843215
v -1.133520 -0.000000 0.855162
v -0.905008 -0.076061 1.487496
v -0.915591 0.444996 0.994025
v -1.152269 0.341773 0.843215
v -0.489477 0.642984 1.254296
v -0.400328 0.797251 1.204264
v 0.015623 0.568786 1.562811
v 0.015623 0.786091 1.221777
v -1.152269 0.341773 0.843215
v -1.109773 -0.432871 0.870293
v -0.905008 -0.076061 1.487496
v -1.133520 -0.000000 0.855162
v -0.799151 1.113952 0.495844
v -0.553163 1.500000 0.062811
v -0.789710 1.128770 0.062811
v -0.915591 0.931214 0.543828
v -1.454028 0.851701 0.056931
v -1.013840 0.770361 0.590486
v -0.799151 1.113952 0.495844
v -1.212970 0.444348 0.685050
v -1.454028 0.851701 0.056931
v -0.789710 1.128770 0.062811
v -0.781050 1.142361 -0.334370
v -0.799151 1.113952 0.495844
v -0.042113 1.417116 1.003230
v -0.483132 0.931214 0.994025
v -0.400328 0.797251 1.204264
v -0.649058 1.174059 0.596441
v -0.023634 1.446239 0.150828
v -0.649058 1.174059 0.596441
v -0.042113 1.417116 1.003230
v 0.323231 1.316805 0.362737
v -0.023634 1.446239 0.150828
v -0.042113 1.417116 1.003230
v 0.015623 1.431590 0.174811
v 1.468521 0.077115 0.093824
v 1.442299 0.937744 0.122660
v 1.327246 0.308409 0.430569
v 1.199007 0.518362 0.736242
v 1.442299 0.937744 0.122660
v 0.946837 0.931214 0.573511
v 1.199007 0.518362 0.736242
v 0.813230 1.140894 0.495831
v 0.813230 1.140894 0.495831
v 0.584408 1.500000 0.062811
v 0.798449 1.164091 0.062811
v 1.515623 0.000000 0.631596
v 1.147489 0.429557 0.866170
v 1.157240 0.000000 0.859957
v 0.885020 -0.022883 1.528118
v 1.157240 0.000000 0.859957
v 1.147489 0.429557 0.866170
v 1.166413 -0.404091 0.854112
v 0.798449 1.164091 0.062811
v 1.442299 0.937744 0.122660
v 0.786409 1.182985 -0.289874
v 0.813230 1.140894 0.495831
v 0.463304 0.632116 1.289367
v 0.885020 -0.022883 1.528118
v 0.946837 0.484989 0.994025
v 0.463304 0.632116 1.289367
v 1.147489 0.429557 0.866170
v 0.015623 0.568786 1.562811
v 0.370294 0.776576 1.236711
v 0.015623 0.786091 1.221777
v 0.675157 1.185483 0.577737
v 0.478319 0.931214 0.994025
v -0.042113 1.417116 1.003230
v 0.370294 0.776576 1.236711
v 0.675157 1.185483 0.577737
v -0.042113 1.417116 1.003230
v 0.015623 0.786091 1.221777
v 0.370294 0.776576 1.236711
v -0.400328 0.797251 1.204264
vn -0.0000 -0.8501 -0.5267
vn -0.0000 -0.8433 -0.5374
vn -0.0000 -0.8472 -0.5313
vn -0.0000 -0.8473 -0.5311
vn 0.0311 -0.3246 -0.9454
vn -0.5469 -0.5742 -0.6093
vn -0.0000 -0.8534 -0.5213
vn -0.5306 -0.0000 -0.8476
vn -0.5213 -0.0000 -0.8534
vn -0.5267 -0.0000 -0.8501
vn 0.6070 -0.5399 -0.5831
vn 0.5213 -0.0000 -0.8534
vn 0.5267 -0.0000 -0.8501
vn 0.5312 -0.0000 -0.8472
vn -0.3281 -0.9438 -0.0394
vn -0.0000 -0.8534 0.5213
vn -0.0000 -0.8501 0.5267
vn -0.0000 -0.8476 0.5306
vn -0.8433 -0.5374 -0.0000
vn -0.8501 -0.5267 -0.0000
vn -0.8474 -0.5310 -0.0000
vn -0.5374 -0.0000 -0.8433
vn -0.5310 -0.0000 -0.8474
vn 0.3850 -0.9226 -0.0232
vn 0.8433 -0.5374 -0.0000
vn 0.8501 -0.5267 -0.0000
vn 0.8477 -0.5305 -0.0000
vn -0.0000 -0.8475 0.5309
vn 0.5309 -0.0000 -0.8474
vn 0.5374 -0.0000 -0.8433
vn -0.5719 -0.6136 0.5445
vn -0.0000 -0.8433 0.5374
vn -0.8472 -0.5313 -0.0000
vn -0.8534 -0.5213 -0.0000
vn -0.9258 -0.0156 -0.3777
vn 0.0094 0.3883 -0.9215
vn -0.5820 0.5793 -0.5706
vn -0.0000 0.8501 -0.5267
vn -0.0000 0.8433 -0.5374
vn -0.0000 0.8475 -0.5309
vn 0.8534 -0.5213 -0.0000
vn 0.8474 -0.5309 -0.0000
vn 0.5820 -0.5793 0.5706
vn 0.5719 0.6136 -0.5445
vn -0.0000 0.8476 -0.5306
vn 0.9412 0.0399 -0.3353
vn -0.0094 -0.3882 0.9215
vn -0.0094 -0.3883 0.9215
vn -0.0094 -0.3884 0.9215
vn -0.5213 -0.0000 0.8534
vn -0.5267 -0.0000 0.8501
vn -0.5309 -0.0000 0.8474
vn -0.9412 -0.0399 0.3353
vn -0.9413 -0.0399 0.3353
vn -0.8501 0.5267 -0.0000
vn -0.8534 0.5213 -0.0000
vn -0.8474 0.5309 -0.0000
vn -0.0000 0.8534 -0.5213
vn -0.0000 0.8534 -0.5212
vn 0.8534 0.5213 -0.0000
vn 0.8501 0.5267 -0.0000
vn 0.8472 0.5313 -0.0000
vn 0.5310 -0.0000 0.8474
vn 0.5213 -0.0000 0.8534
vn 0.5267 -0.0000 0.8501
vn -0.5312 -0.0000 0.8472
vn -0.0311 0.3246 0.9454
vn -0.5374 -0.0000 0.8433
vn -0.8477 0.5305 -0.0000
vn -0.8534 0.5212 -0.0000
vn -0.9412 -0.0399 0.3354
vn -0.8433 0.5374 -0.0000
vn 0.3281 0.9438 0.0394
vn -0.3850 0.9226 0.0232
vn -0.0000 0.8473 0.5311
vn -0.0000 0.8534 0.5213
vn -0.0000 0.8501 0.5267
vn 0.9258 0.0156 0.3777
vn 0.8474 0.5310 -0.0000
vn 0.5374 -0.0000 0.8433
vn 0.8433 0.5374 -0.0000
vn 0.9412 0.0399 -0.3354
vn 0.5306 -0.0000 0.8476
vn -0.0000 0.8472 0.5313
vn -0.6070 0.5399 0.5831
vn -0.0000 0.8433 0.5374
vn -0.9413 -0.0399 0.3351
vn 0.3281 0.9438 0.0393
vn 0.3281 0.9438 0.0390
vn 0.3282 0.9438 0.0394
vn 0.5469 0.5742 0.6093
s 1
usemtl Color_I03
f 1//1 2//2 3//3
f 2//2 1//1 4//2
f 2//2 4//2 5//2
f 6//2 7//2 8//2
f 7//2 6//2 9//1
f 7//2 9//1 10//4
f 11//5 12//5 13//5
f 12//5 11//5 14//5
f 15//6 16//6 17//6
f 16//6 15//6 18//6
f 3//3 19//7 1//1
f 19//7 20//7 1//1
f 20//7 19//7 21//7
f 20//7 21//7 22//7
f 22//7 21//7 23//7
f 24//8 25//9 26//10
f 25//9 27//9 26//10
f 27//9 25//9 28//9
f 27//9 28//9 29//9
f 29//9 28//9 30//9
f 9//1 31//7 10//4
f 32//7 33//7 34//7
f 33//7 32//7 35//7
f 34//7 33//7 31//7
f 34//7 31//7 9//1
f 36//11 37//11 38//11
f 37//11 36//11 39//11
f 40//12 41//12 42//13
f 41//12 40//12 43//12
f 43//12 40//12 44//12
f 45//14 42//13 41//12
f 46//15 47//15 48//15
f 46//15 49//15 47//15
f 49//15 46//15 50//15
f 51//16 52//16 53//17
f 52//16 51//16 54//16
f 54//16 51//16 55//16
f 56//18 53//17 52//16
f 57//19 58//19 59//20
f 58//19 57//19 60//19
f 59//20 58//19 61//21
f 26//10 62//22 24//8
f 62//22 26//10 63//22
f 62//22 63//22 64//22
f 65//6 66//6 67//6
f 66//6 65//6 68//6
f 69//5 70//5 71//5
f 69//5 72//5 70//5
f 72//5 69//5 73//5
f 74//10 75//9 76//23
f 77//9 78//9 79//9
f 78//9 77//9 80//9
f 79//9 78//9 75//9
f 79//9 75//9 74//10
f 81//24 82//24 83//24
f 84//25 85//25 86//25
f 85//25 84//25 87//26
f 85//25 87//26 88//27
f 89//16 90//16 91//16
f 90//16 89//16 92//16
f 90//16 92//16 93//16
f 93//16 92//16 94//17
f 95//16 94//17 96//28
f 94//17 95//16 93//16
f 97//12 98//12 99//12
f 98//12 97//12 100//12
f 98//12 100//12 101//12
f 101//12 100//12 102//13
f 103//12 102//13 104//29
f 102//13 103//12 101//12
f 105//5 106//5 107//5
f 106//5 105//5 108//5
f 109//11 110//11 111//11
f 110//11 109//11 112//11
f 42//13 113//30 114//30
f 113//30 42//13 45//14
f 114//30 113//30 115//30
f 116//15 117//15 118//15
f 117//15 116//15 119//15
f 120//31 121//31 122//31
f 121//31 120//31 123//31
f 53//17 124//32 125//32
f 124//32 53//17 56//18
f 125//32 124//32 126//32
f 127//20 128//19 129//19
f 128//19 127//20 130//33
f 129//19 128//19 131//19
f 132//15 133//15 134//15
f 133//15 132//15 135//15
f 136//6 137//6 138//6
f 137//6 136//6 139//6
f 140//34 141//34 142//34
f 141//34 140//34 143//34
f 141//34 143//34 144//34
f 144//34 143//34 145//34
f 145//34 143//34 59//20
f 59//20 61//21 145//34
f 146//22 147//22 148//22
f 147//22 146//22 74//10
f 147//22 74//10 76//23
f 149//35 150//35 151//35
f 150//35 149//35 152//35
f 153//36 154//36 155//36
f 156//37 157//37 158//37
f 157//37 156//37 159//37
f 160//38 161//39 162//39
f 161//39 160//38 163//40
f 162//39 161//39 164//39
f 87//26 165//41 88//27
f 165//41 87//26 166//41
f 167//41 168//41 169//41
f 168//41 167//41 166//41
f 168//41 166//41 87//26
f 170//11 171//11 172//11
f 171//11 170//11 173//11
f 174//24 175//24 176//24
f 175//24 174//24 177//24
f 178//26 179//25 180//42
f 179//25 178//26 181//25
f 179//25 181//25 182//25
f 183//32 184//32 94//17
f 184//32 183//32 185//32
f 94//17 184//32 96//28
f 186//43 187//43 188//43
f 187//43 186//43 189//43
f 190//43 189//43 186//43
f 191//24 192//24 193//24
f 194//30 195//30 196//30
f 195//30 194//30 102//13
f 102//13 194//30 104//29
f 197//44 198//44 199//44
f 198//44 197//44 200//44
f 198//44 201//44 199//44
f 202//36 203//36 204//36
f 205//39 206//39 207//39
f 206//39 205//39 208//38
f 208//38 205//39 209//45
f 210//46 211//46 212//46
f 211//46 210//46 213//46
f 214//47 215//48 216//48
f 215//48 214//47 217//49
f 218//50 219//50 220//51
f 219//50 218//50 221//50
f 221//50 218//50 222//50
f 221//50 222//50 223//50
f 220//51 224//50 225//52
f 224//50 220//51 219//50
f 226//34 227//34 127//20
f 227//34 226//34 228//34
f 228//34 226//34 229//34
f 130//33 127//20 227//34
f 230//31 231//31 232//31
f 231//31 230//31 233//31
f 234//35 235//35 236//35
f 236//35 235//35 237//35
f 238//53 239//53 240//53
f 239//53 238//53 241//54
f 242//55 243//56 244//57
f 245//56 246//56 247//56
f 246//56 245//56 248//56
f 248//56 245//56 243//56
f 248//56 243//56 242//55
f 249//58 250//58 160//38
f 250//58 249//58 251//58
f 251//58 249//58 252//58
f 251//58 252//58 253//58
f 250//58 163//40 160//38
f 163//40 250//58 254//59
f 255//37 256//37 257//37
f 256//37 255//37 258//37
f 259//36 260//36 261//36
f 260//36 259//36 262//36
f 180//42 263//41 178//26
f 263//41 264//41 178//26
f 264//41 263//41 265//41
f 264//41 265//41 266//41
f 266//41 265//41 267//41
f 268//46 269//46 270//46
f 269//46 268//46 271//46
f 272//11 170//11 172//11
f 273//60 274//60 275//60
f 274//60 273//60 276//60
f 276//60 273//60 277//61
f 277//61 278//62 276//60
f 279//43 280//43 281//43
f 280//43 279//43 282//43
f 283//63 284//64 285//65
f 284//64 286//64 285//65
f 286//64 284//64 287//64
f 286//64 287//64 288//64
f 288//64 287//64 289//64
f 290//44 291//44 292//44
f 291//44 290//44 293//44
f 294//58 295//58 296//58
f 295//58 294//58 297//58
f 295//58 297//58 208//38
f 208//38 209//45 295//58
f 298//50 299//50 300//50
f 299//50 298//50 301//50
f 299//50 301//50 302//51
f 302//51 303//66 299//50
f 304//67 305//67 306//67
f 305//67 304//67 307//67
f 308//48 309//48 310//48
f 311//31 312//31 313//31
f 314//31 312//31 315//31
f 312//31 314//31 313//31
f 220//51 316//68 317//68
f 316//68 220//51 225//52
f 317//68 316//68 318//68
f 319//69 320//56 321//55
f 320//56 319//69 322//70
f 320//56 323//56 321//55
f 323//56 320//56 324//56
f 323//56 324//56 325//56
f 326//53 327//71 328//53
f 327//71 326//53 329//71
f 330//35 331//35 332//35
f 333//37 334//37 335//37
f 334//37 333//37 336//37
f 337//72 338//72 339//72
f 338//72 337//72 242//55
f 338//72 242//55 244//57
f 340//73 341//73 342//73
f 341//73 340//73 343//73
f 344//74 345//74 346//74
f 255//37 257//37 347//37
f 348//75 349//76 350//77
f 349//76 351//76 350//77
f 351//76 349//76 352//76
f 351//76 352//76 353//76
f 353//76 352//76 354//76
f 355//78 356//78 357//78
f 358//60 359//60 360//61
f 359//60 358//60 361//60
f 361//60 358//60 362//60
f 361//60 362//60 363//60
f 363//60 362//60 364//60
f 365//79 360//61 359//60
f 285//65 366//80 283//63
f 366//80 285//65 367//80
f 366//80 367//80 368//80
f 369//81 370//81 371//81
f 370//81 369//81 277//61
f 277//61 369//81 278//62
f 372//44 373//44 374//44
f 373//44 372//44 375//44
f 376//46 377//46 378//46
f 377//46 376//46 379//82
f 380//43 381//43 382//43
f 381//43 380//43 383//43
f 384//48 385//48 386//48
f 387//67 388//67 389//67
f 388//67 387//67 390//67
f 391//65 392//64 393//83
f 394//64 395//64 396//64
f 395//64 394//64 397//64
f 395//64 397//64 392//64
f 395//64 392//64 391//65
f 398//77 399//76 400//84
f 401//76 402//76 403//76
f 402//76 401//76 404//76
f 404//76 401//76 399//76
f 404//76 399//76 398//77
f 405//68 406//68 302//51
f 406//68 405//68 407//68
f 302//51 406//68 303//66
f 408//85 409//85 410//85
f 409//85 408//85 411//85
f 350//77 412//86 348//75
f 412//86 350//77 413//86
f 412//86 413//86 414//86
f 415//87 416//53 417//53
f 416//53 415//87 418//53
f 321//55 419//72 319//69
f 419//72 321//55 420//72
f 419//72 420//72 421//72
f 422//85 423//85 424//85
f 423//85 422//85 425//85
f 423//85 426//85 424//85
f 427//74 428//74 429//74
f 428//74 427//74 430//74
f 431//85 432//85 433//85
f 432//85 431//85 434//85
f 435//74 436//74 437//74
f 438//88 439//89 440//73
f 439//89 438//88 441//90
f 442//78 443//78 444//78
f 443//78 445//78 444//78
f 446//91 447//91 448//91
f 447//91 446//91 449//91
f 360//61 450//81 451//81
f 450//81 360//61 365//79
f 451//81 450//81 452//81
f 453//80 454//80 455//80
f 454//80 453//80 391//65
f 454//80 391//65 393//83
f 456//78 457//78 458//78
f 457//78 456//78 459//78
f 460//73 461//73 462//73
f 461//73 460//73 463//73
f 464//67 390//67 387//67
f 465//91 466//91 467//91
f 466//91 465//91 468//91
f 469//86 470//86 471//86
f 470//86 469//86 398//77
f 470//86 398//77 400//84
f 472//73 438//88 440//73
f 473//91 474//91 475//91
f 474//91 473//91 476//91
f 477//67 478//67 479//67
f 478//67 477//67 480//67
o Material3
v 0.015623 -0.780898 -1.104306
v 0.015623 -0.568786 -1.437189
v -0.330701 -0.771606 -1.118888
v -0.915591 -0.931214 -0.868403
v -0.442197 -0.931214 -0.868403
v 0.531676 -0.931214 -0.868403
v 0.946837 -0.931214 -0.868403
v 0.445900 -0.792442 -1.086189
v 0.015623 -0.568786 -1.437189
v 0.015623 -0.780898 -1.104306
v 0.015623 -0.780898 -1.104306
v -0.330701 -0.771606 -1.118888
v 0.445900 -0.792442 -1.086189
v 0.084905 -1.417116 -0.883596
v -0.637701 -1.183760 -0.454937
v 0.084905 -1.417116 -0.883596
v -0.442197 -0.931214 -0.868403
v -0.330701 -0.771606 -1.118888
v 0.015623 -1.427549 -0.055805
v -0.283156 -1.316059 -0.238337
v 0.015623 -1.500000 0.062811
v -0.553163 -1.500000 0.062811
v -0.637701 -1.183760 -0.454937
v -0.085014 0.000000 -1.375721
v -0.237447 -0.285793 -1.282614
v 0.015623 0.000000 -1.437189
v 0.015623 -0.568786 -1.437189
v -0.421417 -0.630709 -1.170245
v -0.915591 -0.931214 -0.868403
v -0.915591 -0.480345 -0.868403
v 0.696366 -1.172250 -0.473780
v 0.584408 -1.500000 0.062811
v 0.066289 -1.446456 -0.024852
v 0.015623 -1.427549 -0.055805
v 0.015623 -1.500000 0.062811
v 0.445900 -0.792442 -1.086189
v 0.084905 -1.417116 -0.883596
v 0.531676 -0.931214 -0.868403
v 0.696366 -1.172250 -0.473780
v 0.521144 -0.662238 -1.128417
v 0.946837 -0.931214 -0.868403
v 0.946837 -0.464445 -0.868403
v 0.015623 0.000000 -1.437189
v 0.015623 -0.568786 -1.437189
v 0.127715 -0.000000 -1.368723
v -0.637701 -1.183760 -0.454937
v -0.283156 -1.316059 -0.238337
v 0.084905 -1.417116 -0.883596
v 0.066289 -1.446456 -0.024852
v 0.015623 -1.427549 -0.055805
v -0.604777 -1.234898 0.496835
v -0.915591 -0.931214 0.994025
v -0.457268 -0.931214 0.994025
v 0.015623 -1.500000 0.062811
v -0.553163 -1.500000 0.062811
v 0.015623 -1.436810 0.166265
v -0.915591 -0.931214 -0.443513
v -0.784976 -1.136199 -0.367572
v -0.915591 -0.931214 -0.868403
v -0.770285 -1.159255 0.062811
v -0.553163 -1.500000 0.062811
v -1.113692 0.000000 -0.742174
v -1.484377 0.000000 -0.505975
v -1.103970 -0.428304 -0.748369
v -1.103970 -0.428304 -0.748369
v -0.915591 -0.480345 -0.868403
v -0.842227 0.022883 -1.408484
v -0.421417 -0.630709 -1.170245
v -0.421417 -0.630709 -1.170245
v -0.237447 -0.285793 -1.282614
v -0.842227 0.022883 -1.408484
v -0.060420 0.046109 -1.390742
v -0.085014 0.000000 -1.375721
v -0.915591 0.931214 -0.868403
v -0.475934 0.658342 -1.136946
v 0.015623 0.568786 -1.437189
v -0.060420 0.046109 -1.390742
v -0.085014 0.000000 -1.375721
v 0.015623 0.000000 -1.437189
v -0.915591 0.481166 -0.868403
v 0.084905 -1.417116 -0.883596
v 0.066289 -1.446456 -0.024852
v 0.696366 -1.172250 -0.473780
v 0.946837 -0.931214 -0.436215
v 0.946837 -0.931214 -0.868403
v 0.826441 -1.120160 -0.386601
v 0.584408 -1.500000 0.062811
v 0.816642 -1.135538 0.062811
v 0.673028 -1.207497 0.541695
v 0.555618 -1.014969 0.856902
v 0.946837 -0.931214 0.994025
v 0.504541 -0.931214 0.994025
v 0.584408 -1.500000 0.062811
v 0.062689 -1.452128 0.141186
v 0.015623 -1.500000 0.062811
v 0.015623 -1.436810 0.166265
v 0.538582 0.679364 -1.117765
v 0.850669 0.557642 -0.927143
v 0.946837 0.931214 -0.868403
v 0.946837 0.520133 -0.868403
v 0.015623 0.568786 -1.437189
v 0.097535 0.050801 -1.387157
v 0.015623 0.000000 -1.437189
v 0.127715 -0.000000 -1.368723
v 0.097535 0.050801 -1.387157
v 0.127715 -0.000000 -1.368723
v 0.947801 0.076061 -1.367862
v 0.521144 -0.662238 -1.128417
v 0.521144 -0.662238 -1.128417
v 0.946837 -0.464445 -0.868403
v 0.947801 0.076061 -1.367862
v 1.201841 -0.353230 -0.705915
v 1.182463 0.000000 -0.718263
v 1.201841 -0.353230 -0.705915
v 1.515623 0.000000 -0.505975
v 0.062689 -1.452128 0.141186
v 0.015623 -1.436810 0.166265
v 0.046104 -1.478267 0.906218
v -0.604777 -1.234898 0.496835
v -0.406586 -0.810875 1.182883
v 0.046104 -1.478267 0.906218
v -0.457268 -0.931214 0.994025
v -0.604777 -1.234898 0.496835
v 0.015623 -0.807133 1.188755
v -0.406586 -0.810875 1.182883
v 0.015623 -0.568786 1.562811
v -0.770285 -1.159255 0.062811
v -0.758775 -1.177317 0.399974
v -0.553163 -1.500000 0.062811
v -0.915591 -0.931214 0.512620
v -0.915591 -0.931214 0.994025
v -0.784976 -1.136199 -0.367572
v -1.399506 -0.937744 -0.003025
v -0.770285 -1.159255 0.062811
v -0.758775 -1.177317 0.399974
v -1.161839 -0.528058 -0.602422
v -1.399506 -0.937744 -0.003025
v -0.915591 -0.931214 -0.443513
v -0.784976 -1.136199 -0.367572
v -1.161839 -0.528058 -0.602422
v -1.484377 0.000000 -0.505975
v -1.287114 -0.322959 -0.303816
v -1.425122 -0.097012 0.025144
v -1.484377 0.000000 0.062811
v -1.410701 -0.120622 0.062811
v -1.122840 0.403035 -0.736345
v -1.484377 0.000000 -0.505975
v -1.113692 0.000000 -0.742174
v -1.103970 -0.428304 -0.748369
v -0.842227 0.022883 -1.408484
v -1.113692 0.000000 -0.742174
v -1.122840 0.403035 -0.736345
v -0.842227 0.022883 -1.408484
v -0.060420 0.046109 -1.390742
v -0.475934 0.658342 -1.136946
v -0.475934 0.658342 -1.136946
v -0.915591 0.481166 -0.868403
v -0.842227 0.022883 -1.408484
v -1.122840 0.403035 -0.736345
v 0.015623 0.801815 -1.071479
v -0.395333 0.798173 -1.077195
v 0.015623 0.568786 -1.437189
v -0.467619 0.931214 -0.868403
v -0.915591 0.931214 -0.868403
v 1.250080 -0.434746 -0.580221
v 1.515623 0.000000 -0.505975
v 1.464305 -0.084018 0.062811
v 1.515623 0.000000 0.062811
v 1.046257 -0.768444 -0.483428
v 0.826441 -1.120160 -0.386601
v 1.496820 -0.851701 0.062703
v 0.946837 -0.931214 -0.436215
v 1.046257 -0.768444 -0.483428
v 0.826441 -1.120160 -0.386601
v 0.816642 -1.135538 0.062811
v 1.496820 -0.851701 0.062703
v 0.807911 -1.149242 0.463268
v 0.816642 -1.135538 0.062811
v 0.584408 -1.500000 0.062811
v 0.807911 -1.149242 0.463268
v 0.946837 -0.931214 0.994025
v 0.946837 -0.931214 0.542919
v 0.435104 -0.803415 1.194589
v 0.015623 -0.807133 1.188755
v 0.015623 -0.568786 1.562811
v 0.555618 -1.014969 0.856902
v 0.046104 -1.478267 0.906218
v 0.504541 -0.931214 0.994025
v 0.435104 -0.803415 1.194589
v 0.673028 -1.207497 0.541695
v 0.062689 -1.452128 0.141186
v 0.046104 -1.478267 0.906218
v 0.673028 -1.207497 0.541695
v 1.158180 0.442654 -0.733737
v 1.515623 0.000000 -0.505975
v 1.182463 0.000000 -0.718263
v 1.158180 0.442654 -0.733737
v 0.946837 0.520133 -0.868403
v 0.947801 0.076061 -1.367862
v 0.850669 0.557642 -0.927143
v 0.538582 0.679364 -1.117765
v 0.097535 0.050801 -1.387157
v 0.947801 0.076061 -1.367862
v 0.538582 0.679364 -1.117765
v 0.505761 0.931214 -0.868403
v 0.452895 0.805690 -1.065397
v 0.946837 0.931214 -0.868403
v 0.015623 0.568786 -1.437189
v 0.015623 0.801815 -1.071479
v 1.158180 0.442654 -0.733737
v 0.947801 0.076061 -1.367862
v 1.182463 0.000000 -0.718263
v 1.201841 -0.353230 -0.705915
v 0.015623 -0.807133 1.188755
v 0.435104 -0.803415 1.194589
v -0.406586 -0.810875 1.182883
v 0.046104 -1.478267 0.906218
v -0.506461 -0.663631 1.243922
v -0.915591 -0.931214 0.994025
v -0.810409 -0.545083 1.058271
v -0.915591 -0.504059 0.994025
v -0.107487 0.000000 1.487615
v 0.015623 0.000000 1.562811
v -0.076915 -0.051460 1.506288
v 0.015623 -0.568786 1.562811
v -1.163159 -0.525898 0.709377
v -1.484377 0.000000 0.062811
v -1.484377 -0.000000 0.631596
v -1.410701 -0.120622 0.062811
v -0.758775 -1.177317 0.399974
v -1.399506 -0.937744 -0.003025
v -0.915591 -0.931214 0.512620
v -1.163159 -0.525898 0.709377
v -1.287114 -0.322959 -0.303816
v -1.399506 -0.937744 -0.003025
v -1.161839 -0.528058 -0.602422
v -1.425122 -0.097012 0.025144
v -1.425122 -0.097012 0.025144
v -1.410701 -0.120622 0.062811
v -1.399506 -0.937744 -0.003025
v -1.163159 -0.525898 0.709377
v -0.915591 0.931214 -0.868403
v -1.185968 0.488555 -0.585139
v -1.484377 0.000000 -0.505975
v -1.430753 0.087794 0.031336
v -1.484377 0.000000 0.062811
v -1.420267 0.104961 0.062811
v -0.915591 0.931214 -0.411507
v -0.516602 1.011535 -0.736902
v -0.634882 1.205491 -0.419359
v 0.015623 1.440335 -0.034873
v 0.015623 1.500000 0.062811
v -0.020020 1.451935 -0.015881
v -0.553163 1.500000 0.062811
v -0.395333 0.798173 -1.077195
v -0.003312 1.478267 -0.786584
v -0.467619 0.931214 -0.868403
v -0.516602 1.011535 -0.736902
v 0.452895 0.805690 -1.065397
v -0.003312 1.478267 -0.786584
v 0.015623 0.801815 -1.071479
v -0.395333 0.798173 -1.077195
v 1.464305 -0.084018 0.062811
v 1.472997 -0.069787 0.088902
v 1.515623 0.000000 0.062811
v 1.515623 0.000000 0.631596
v 1.222442 -0.479995 0.719908
v 1.250080 -0.434746 -0.580221
v 1.496820 -0.851701 0.062703
v 1.464305 -0.084018 0.062811
v 1.472997 -0.069787 0.088902
v 1.250080 -0.434746 -0.580221
v 1.200358 0.516151 -0.606603
v 0.946837 0.931214 -0.405114
v 0.946837 0.931214 -0.868403
v 1.515623 0.000000 -0.505975
v 1.456647 0.096554 0.062811
v 1.515623 0.000000 0.062811
v 0.807911 -1.149242 0.463268
v 0.946837 -0.931214 0.542919
v 1.496820 -0.851701 0.062703
v 1.222442 -0.479995 0.719908
v 0.126151 0.000000 1.495300
v 0.101531 -0.046159 1.510338
v 0.015623 0.000000 1.562811
v 0.015623 -0.568786 1.562811
v 0.517939 -0.659710 1.255996
v 0.946837 -0.931214 0.994025
v 0.946837 -0.486868 0.994025
v 0.652394 1.233094 -0.374166
v -0.003312 1.478267 -0.786584
v 0.505761 0.931214 -0.868403
v 0.452895 0.805690 -1.065397
v 0.652394 1.233094 -0.374166
v 0.584408 1.500000 0.062811
v 0.015623 1.500000 0.062811
v 0.015623 1.440335 -0.034873
v -0.489477 0.642984 1.254296
v -0.915591 0.444996 0.994025
v -0.915591 0.931214 0.994025
v 0.015623 0.568786 1.562811
v 0.015623 0.000000 1.562811
v -0.107487 0.000000 1.487615
v -0.076915 -0.051460 1.506288
v -0.905008 -0.076061 1.487496
v -0.107487 0.000000 1.487615
v -0.489477 0.642984 1.254296
v -0.506461 -0.663631 1.243922
v -0.905008 -0.076061 1.487496
v -0.076915 -0.051460 1.506288
v -0.810409 -0.545083 1.058271
v -0.905008 -0.076061 1.487496
v -0.506461 -0.663631 1.243922
v -0.915591 -0.504059 0.994025
v -1.109773 -0.432871 0.870293
v -1.133520 -0.000000 0.855162
v -1.109773 -0.432871 0.870293
v -1.484377 -0.000000 0.631596
v -1.484377 0.000000 0.062811
v -1.420267 0.104961 0.062811
v -1.484377 -0.000000 0.631596
v -1.212970 0.444348 0.685050
v -0.915591 0.931214 0.994025
v -1.013840 0.770361 0.590486
v -0.915591 0.931214 0.543828
v -1.430753 0.087794 0.031336
v -1.454028 0.851701 0.056931
v -1.420267 0.104961 0.062811
v -1.212970 0.444348 0.685050
v -1.454028 0.851701 0.056931
v -1.430753 0.087794 0.031336
v -1.185968 0.488555 -0.585139
v -0.781050 1.142361 -0.334370
v -1.454028 0.851701 0.056931
v -0.915591 0.931214 -0.411507
v -1.185968 0.488555 -0.585139
v -0.781050 1.142361 -0.334370
v -0.553163 1.500000 0.062811
v -0.789710 1.128770 0.062811
v 0.652394 1.233094 -0.374166
v 0.015623 1.440335 -0.034873
v -0.003312 1.478267 -0.786584
v -0.020020 1.451935 -0.015881
v -0.020020 1.451935 -0.015881
v -0.634882 1.205491 -0.419359
v -0.003312 1.478267 -0.786584
v -0.634882 1.205491 -0.419359
v 0.015623 1.431590 0.174811
v -0.023634 1.446239 0.150828
v 0.015623 1.500000 0.062811
v -0.553163 1.500000 0.062811
v -0.649058 1.174059 0.596441
v -0.915591 0.931214 0.994025
v -0.483132 0.931214 0.994025
v 1.222442 -0.479995 0.719908
v 1.472997 -0.069787 0.088902
v 1.496820 -0.851701 0.062703
v 1.199007 0.518362 0.736242
v 0.946837 0.931214 0.994025
v 0.946837 0.931214 0.573511
v 1.456647 0.096554 0.062811
v 1.515623 0.000000 0.062811
v 1.468521 0.077115 0.093824
v 1.327246 0.308409 0.430569
v 1.515623 0.000000 0.631596
v 1.157240 0.000000 0.859957
v 1.515623 0.000000 0.631596
v 1.166413 -0.404091 0.854112
v 0.786409 1.182985 -0.289874
v 0.584408 1.500000 0.062811
v 0.798449 1.164091 0.062811
v 1.200358 0.516151 -0.606603
v 1.442299 0.937744 0.122660
v 0.946837 0.931214 -0.405114
v 0.786409 1.182985 -0.289874
v 1.456647 0.096554 0.062811
v 1.468521 0.077115 0.093824
v 1.200358 0.516151 -0.606603
v 1.442299 0.937744 0.122660
v 0.517939 -0.659710 1.255996
v 0.885020 -0.022883 1.528118
v 0.946837 -0.486868 0.994025
v 1.166413 -0.404091 0.854112
v 0.517939 -0.659710 1.255996
v 0.101531 -0.046159 1.510338
v 0.885020 -0.022883 1.528118
v 0.278939 0.286457 1.401977
v 0.885020 -0.022883 1.528118
v 0.126151 0.000000 1.495300
v 0.101531 -0.046159 1.510338
v 0.946837 0.931214 0.994025
v 0.463304 0.632116 1.289367
v 0.015623 0.568786 1.562811
v 0.278939 0.286457 1.401977
v 0.126151 0.000000 1.495300
v 0.015623 0.000000 1.562811
v 0.946837 0.484989 0.994025
v 0.946837 0.931214 0.994025
v 0.675157 1.185483 0.577737
v 0.584408 1.500000 0.062811
v 0.323231 1.316805 0.362737
v 0.015623 1.500000 0.062811
v 0.015623 1.431590 0.174811
v 0.478319 0.931214 0.994025
v -1.152269 0.341773 0.843215
v -1.133520 -0.000000 0.855162
v -1.484377 -0.000000 0.631596
v -0.489477 0.642984 1.254296
v -0.905008 -0.076061 1.487496
v -0.915591 0.444996 0.994025
v -1.152269 0.341773 0.843215
v 0.015623 0.786091 1.221777
v 0.015623 0.568786 1.562811
v -0.400328 0.797251 1.204264
v -1.133520 -0.000000 0.855162
v -1.152269 0.341773 0.843215
v -1.109773 -0.432871 0.870293
v -0.905008 -0.076061 1.487496
v -0.789710 1.128770 0.062811
v -0.553163 1.500000 0.062811
v -0.799151 1.113952 0.495844
v -0.799151 1.113952 0.495844
v -0.915591 0.931214 0.543828
v -1.454028 0.851701 0.056931
v -1.013840 0.770361 0.590486
v -1.212970 0.444348 0.685050
v -0.799151 1.113952 0.495844
v -1.454028 0.851701 0.056931
v -0.789710 1.128770 0.062811
v -0.781050 1.142361 -0.334370
v -0.649058 1.174059 0.596441
v -0.042113 1.417116 1.003230
v -0.483132 0.931214 0.994025
v -0.400328 0.797251 1.204264
v -0.042113 1.417116 1.003230
v -0.649058 1.174059 0.596441
v -0.023634 1.446239 0.150828
v 0.015623 1.431590 0.174811
v 0.323231 1.316805 0.362737
v -0.023634 1.446239 0.150828
v -0.042113 1.417116 1.003230
v 1.327246 0.308409 0.430569
v 1.442299 0.937744 0.122660
v 1.468521 0.077115 0.093824
v 1.199007 0.518362 0.736242
v 0.813230 1.140894 0.495831
v 1.442299 0.937744 0.122660
v 0.946837 0.931214 0.573511
v 1.199007 0.518362 0.736242
v 0.798449 1.164091 0.062811
v 0.813230 1.140894 0.495831
v 0.584408 1.500000 0.062811
v 1.147489 0.429557 0.866170
v 1.515623 0.000000 0.631596
v 1.157240 0.000000 0.859957
v 1.166413 -0.404091 0.854112
v 0.885020 -0.022883 1.528118
v 1.157240 0.000000 0.859957
v 1.147489 0.429557 0.866170
v 0.813230 1.140894 0.495831
v 0.798449 1.164091 0.062811
v 1.442299 0.937744 0.122660
v 0.786409 1.182985 -0.289874
v 0.463304 0.632116 1.289367
v 1.147489 0.429557 0.866170
v 0.885020 -0.022883 1.528118
v 0.946837 0.484989 0.994025
v 0.463304 0.632116 1.289367
v 0.370294 0.776576 1.236711
v 0.015623 0.568786 1.562811
v 0.015623 0.786091 1.221777
v 0.675157 1.185483 0.577737
v 0.675157 1.185483 0.577737
v 0.478319 0.931214 0.994025
v -0.042113 1.417116 1.003230
v 0.370294 0.776576 1.236711
v -0.400328 0.797251 1.204264
v -0.042113 1.417116 1.003230
v 0.015623 0.786091 1.221777
v 0.370294 0.776576 1.236711
vn -0.0000 0.8433 0.5374
vn -0.0000 0.8501 0.5267
vn -0.0000 0.8472 0.5313
vn -0.0000 0.8473 0.5311
vn -0.0311 0.3246 0.9453
vn -0.0311 0.3246 0.9454
vn 0.5469 0.5742 0.6093
vn -0.0000 0.8534 0.5213
vn 0.5213 -0.0000 0.8534
vn 0.5267 -0.0000 0.8501
vn 0.5306 -0.0000 0.8476
vn -0.6070 0.5399 0.5831
vn -0.5213 -0.0000 0.8534
vn -0.5267 -0.0000 0.8501
vn -0.5312 -0.0000 0.8472
vn 0.3281 0.9438 0.0394
vn -0.0000 0.8534 -0.5213
vn -0.0000 0.8501 -0.5267
vn -0.0000 0.8476 -0.5306
vn 0.8474 0.5310 -0.0000
vn 0.8433 0.5374 -0.0000
vn 0.8501 0.5267 -0.0000
vn 0.5374 -0.0000 0.8433
vn 0.5310 -0.0000 0.8474
vn -0.3850 0.9226 0.0232
vn -0.8477 0.5305 -0.0000
vn -0.8501 0.5267 -0.0000
vn -0.8433 0.5374 -0.0000
vn -0.0000 0.8475 -0.5309
vn -0.5309 -0.0000 0.8474
vn -0.5374 -0.0000 0.8433
vn 0.5719 0.6136 -0.5445
vn -0.0000 0.8433 -0.5374
vn 0.8472 0.5313 -0.0000
vn 0.8534 0.5213 -0.0000
vn 0.9258 0.0156 0.3777
vn -0.0094 -0.3883 0.9215
vn 0.5820 -0.5793 0.5706
vn -0.0000 -0.8433 0.5374
vn -0.0000 -0.8475 0.5309
vn -0.0000 -0.8501 0.5267
vn -0.8534 0.5213 -0.0000
vn -0.8474 0.5309 -0.0000
vn -0.5820 0.5793 -0.5706
vn -0.5719 -0.6136 0.5445
vn -0.0000 -0.8476 0.5306
vn -0.9412 -0.0399 0.3353
vn 0.0093 0.3884 -0.9215
vn 0.0094 0.3886 -0.9213
vn 0.0094 0.3883 -0.9215
vn 0.5213 -0.0000 -0.8534
vn 0.5267 -0.0000 -0.8501
vn 0.5309 -0.0000 -0.8474
vn 0.9412 0.0399 -0.3353
vn 0.8501 -0.5267 -0.0000
vn 0.8534 -0.5213 -0.0000
vn 0.8474 -0.5309 -0.0000
vn -0.0000 -0.8534 0.5212
vn -0.0000 -0.8534 0.5213
vn -0.8534 -0.5213 -0.0000
vn -0.8472 -0.5313 -0.0000
vn -0.8501 -0.5267 -0.0000
vn -0.5213 -0.0000 -0.8534
vn -0.5267 -0.0000 -0.8501
vn -0.5310 -0.0000 -0.8474
vn 0.5312 -0.0000 -0.8472
vn 0.0311 -0.3246 -0.9454
vn 0.5374 -0.0000 -0.8433
vn 0.8534 -0.5212 -0.0000
vn 0.8477 -0.5305 -0.0000
vn 0.9412 0.0399 -0.3354
vn 0.8433 -0.5374 -0.0000
vn -0.3281 -0.9438 -0.0394
vn 0.3850 -0.9226 -0.0232
vn -0.0000 -0.8534 -0.5213
vn -0.0000 -0.8501 -0.5267
vn -0.0000 -0.8473 -0.5311
vn -0.9258 -0.0156 -0.3777
vn -0.8474 -0.5310 -0.0000
vn -0.5374 -0.0000 -0.8433
vn -0.8433 -0.5374 -0.0000
vn -0.9412 -0.0399 0.3354
vn -0.5306 -0.0000 -0.8476
vn -0.0000 -0.8472 -0.5313
vn 0.6070 -0.5399 -0.5831
vn -0.0000 -0.8433 -0.5374
vn 0.9412 0.0399 -0.3355
vn -0.3282 -0.9438 -0.0394
vn -0.3281 -0.9438 -0.0393
vn -0.5469 -0.5742 -0.6093
s 1
usemtl material
f 481//92 482//92 483//92
f 482//92 484//93 483//92
f 485//94 483//92 484//93
f 486//95 487//93 488//92
f 487//93 489//92 488//92
f 490//92 488//92 489//92
f 491//96 492//97 493//97
f 494//97 493//97 492//97
f 495//98 496//98 497//98
f 498//98 497//98 496//98
f 499//99 500//99 501//99
f 501//99 500//99 502//99
f 500//99 503//99 502//99
f 484//93 502//99 503//99
f 484//93 503//99 485//94
f 504//100 505//100 506//100
f 506//100 505//100 507//100
f 505//100 508//100 507//100
f 509//101 507//100 508//100
f 509//101 508//100 510//102
f 487//93 511//99 512//99
f 511//99 513//99 512//99
f 514//99 515//99 513//99
f 512//99 513//99 515//99
f 486//95 511//99 487//93
f 516//103 517//103 518//103
f 519//103 518//103 517//103
f 520//104 521//105 522//106
f 523//104 524//104 525//104
f 525//104 524//104 520//104
f 521//105 520//104 524//104
f 526//107 527//107 528//107
f 529//107 528//107 530//107
f 527//107 530//107 528//107
f 531//108 532//109 533//110
f 534//108 535//108 536//108
f 536//108 535//108 531//108
f 532//109 531//108 535//108
f 537//111 538//112 539//113
f 540//112 541//112 538//112
f 539//113 538//112 541//112
f 542//114 543//114 544//114
f 543//114 509//101 544//114
f 510//102 544//114 509//101
f 545//98 546//98 547//98
f 548//98 547//98 546//98
f 549//97 550//97 551//97
f 552//97 551//97 553//97
f 550//97 553//97 551//97
f 554//101 555//100 556//100
f 555//100 557//100 556//100
f 558//100 559//100 557//100
f 556//100 557//100 559//100
f 560//115 555//100 554//101
f 561//116 562//116 563//116
f 564//117 565//118 566//119
f 565//118 567//119 566//119
f 568//119 566//119 567//119
f 569//108 570//108 571//109
f 572//120 571//109 570//108
f 571//109 573//108 569//108
f 569//108 573//108 574//108
f 573//108 575//108 574//108
f 576//108 574//108 575//108
f 577//104 578//104 579//105
f 580//121 579//105 578//104
f 579//105 581//104 577//104
f 577//104 581//104 582//104
f 581//104 583//104 582//104
f 584//104 582//104 583//104
f 585//97 586//97 587//97
f 588//97 587//97 586//97
f 589//103 590//103 591//103
f 592//103 591//103 590//103
f 593//122 594//122 595//122
f 522//106 521//105 594//122
f 595//122 594//122 521//105
f 596//107 597//107 598//107
f 599//107 598//107 597//107
f 600//123 601//123 602//123
f 603//123 602//123 601//123
f 604//124 605//124 606//124
f 533//110 532//109 605//124
f 606//124 605//124 532//109
f 607//112 608//112 609//112
f 610//125 611//113 608//112
f 609//112 608//112 611//113
f 612//107 613//107 614//107
f 615//107 614//107 613//107
f 616//98 617//98 618//98
f 619//98 618//98 617//98
f 620//126 537//111 539//113
f 539//113 621//126 620//126
f 620//126 621//126 622//126
f 622//126 621//126 623//126
f 621//126 624//126 623//126
f 625//126 623//126 624//126
f 560//115 554//101 626//114
f 554//101 627//114 626//114
f 628//114 626//114 627//114
f 629//127 630//127 631//127
f 632//127 631//127 630//127
f 633//128 634//128 635//128
f 636//129 637//129 638//129
f 639//129 638//129 637//129
f 640//130 641//130 642//130
f 643//131 644//132 641//130
f 642//130 641//130 644//132
f 565//118 645//133 646//133
f 645//133 647//133 646//133
f 648//133 646//133 647//133
f 645//133 565//118 649//133
f 564//117 649//133 565//118
f 650//103 651//103 652//103
f 653//103 652//103 651//103
f 654//116 655//116 656//116
f 657//116 656//116 655//116
f 658//119 659//119 660//119
f 659//119 661//118 660//119
f 662//134 660//119 661//118
f 572//120 663//124 571//109
f 664//124 665//124 663//124
f 571//109 663//124 665//124
f 666//135 667//135 668//135
f 669//135 668//135 667//135
f 667//135 666//135 670//135
f 671//116 672//116 673//116
f 580//121 674//122 579//105
f 579//105 674//122 675//122
f 676//122 675//122 674//122
f 677//136 678//136 679//136
f 680//136 679//136 678//136
f 680//136 681//136 679//136
f 682//128 683//128 684//128
f 685//137 686//130 687//132
f 687//132 686//130 688//130
f 689//130 688//130 686//130
f 690//138 691//138 692//138
f 693//138 692//138 691//138
f 694//139 695//140 696//141
f 697//141 696//141 695//140
f 698//142 699//143 700//142
f 701//144 700//142 699//143
f 702//142 703//142 704//142
f 703//142 705//142 704//142
f 704//142 705//142 698//142
f 699//143 698//142 705//142
f 706//126 611//113 610//125
f 707//126 708//126 709//126
f 709//126 708//126 706//126
f 611//113 706//126 708//126
f 710//123 711//123 712//123
f 713//123 712//123 711//123
f 714//127 715//127 716//127
f 717//127 715//127 714//127
f 718//145 719//145 720//145
f 721//145 720//145 719//145
f 722//146 723//147 724//147
f 723//147 725//147 724//147
f 724//147 725//147 726//147
f 727//147 726//147 725//147
f 728//148 723//147 722//146
f 729//149 730//150 643//131
f 644//132 643//131 730//150
f 731//150 732//150 733//150
f 732//150 734//150 733//150
f 733//150 734//150 730//150
f 644//132 730//150 734//150
f 735//129 736//129 737//129
f 738//129 737//129 736//129
f 739//128 740//128 741//128
f 742//128 741//128 740//128
f 743//133 744//133 745//133
f 745//133 744//133 746//133
f 744//133 747//133 746//133
f 661//118 746//133 747//133
f 661//118 747//133 662//134
f 748//138 749//138 750//138
f 751//138 750//138 749//138
f 653//103 651//103 752//103
f 753//151 754//152 755//153
f 755//153 756//151 753//151
f 753//151 756//151 757//151
f 758//151 757//151 756//151
f 759//135 760//135 761//135
f 762//135 761//135 760//135
f 763//154 764//154 765//154
f 765//154 764//154 766//154
f 764//154 767//154 766//154
f 768//155 766//154 767//154
f 768//155 767//154 769//156
f 770//136 771//136 772//136
f 773//136 772//136 771//136
f 774//150 685//137 687//132
f 687//132 775//150 774//150
f 775//150 776//150 774//150
f 777//150 774//150 776//150
f 778//142 779//157 780//143
f 780//143 781//142 778//142
f 781//142 782//142 778//142
f 783//142 778//142 782//142
f 784//158 785//158 786//158
f 787//158 786//158 785//158
f 788//141 789//141 790//141
f 791//123 792//123 793//123
f 791//123 794//123 792//123
f 795//123 792//123 794//123
f 796//159 797//159 798//159
f 701//144 699//143 797//159
f 798//159 797//159 699//143
f 799//147 800//147 801//147
f 800//147 802//147 801//147
f 803//146 801//147 802//147
f 804//160 805//161 802//147
f 803//146 802//147 805//161
f 806//162 807//145 808//162
f 809//145 808//162 807//145
f 810//127 811//127 812//127
f 813//129 814//129 815//129
f 816//129 815//129 814//129
f 728//148 722//146 817//163
f 722//146 818//163 817//163
f 819//163 817//163 818//163
f 820//164 821//164 822//164
f 823//164 822//164 821//164
f 824//165 825//165 826//165
f 827//129 738//129 736//129
f 828//166 829//166 830//166
f 830//166 829//166 831//166
f 829//166 832//166 831//166
f 833//167 831//166 832//166
f 833//167 832//166 834//168
f 835//169 836//169 837//169
f 838//151 839//153 840//170
f 841//151 842//151 843//151
f 843//151 842//151 844//151
f 842//151 845//151 844//151
f 844//151 845//151 838//151
f 839//153 838//151 845//151
f 846//171 847//171 848//171
f 847//171 768//155 848//171
f 769//156 848//171 768//155
f 754//152 849//172 755//153
f 755//153 849//172 850//172
f 851//172 850//172 849//172
f 852//136 853//136 854//136
f 855//136 854//136 853//136
f 856//173 857//138 858//138
f 859//138 858//138 857//138
f 860//135 861//135 862//135
f 863//135 862//135 861//135
f 864//141 865//141 866//141
f 867//158 868//158 869//158
f 870//158 869//158 868//158
f 871//155 872//154 873//154
f 872//154 874//154 873//154
f 874//154 875//154 873//154
f 876//154 873//154 875//154
f 877//174 872//154 871//155
f 878//167 879//166 880//166
f 879//166 881//166 880//166
f 880//166 881//166 882//166
f 883//166 882//166 881//166
f 884//175 879//166 878//167
f 779//157 885//159 780//143
f 886//159 887//159 885//159
f 780//143 885//159 887//159
f 888//176 889//176 890//176
f 891//176 890//176 889//176
f 892//177 893//177 894//177
f 893//177 833//167 894//177
f 834//168 894//177 833//167
f 895//145 896//178 897//145
f 898//145 897//145 896//178
f 899//163 900//163 901//163
f 900//163 803//146 901//163
f 805//161 901//163 803//146
f 902//176 903//176 904//176
f 905//176 904//176 903//176
f 905//176 906//176 904//176
f 907//165 908//165 909//165
f 910//165 909//165 908//165
f 911//176 912//176 913//176
f 914//176 913//176 912//176
f 915//165 916//165 917//165
f 918//179 919//180 920//164
f 921//164 920//164 919//180
f 922//169 923//169 924//169
f 922//169 925//169 923//169
f 926//181 927//181 928//181
f 929//181 928//181 927//181
f 930//172 931//172 932//172
f 840//170 839//153 931//172
f 932//172 931//172 839//153
f 877//174 871//155 933//171
f 871//155 934//171 933//171
f 935//171 933//171 934//171
f 936//169 937//169 938//169
f 939//169 938//169 937//169
f 940//164 941//164 942//164
f 943//164 942//164 941//164
f 868//158 867//158 944//158
f 945//181 946//181 947//181
f 948//181 947//181 946//181
f 884//175 878//167 949//177
f 878//167 950//177 949//177
f 951//177 949//177 950//177
f 921//164 919//180 952//164
f 953//181 954//181 955//181
f 956//181 955//181 954//181
f 957//158 958//158 959//158
f 960//158 959//158 958//158
